<?xml version="1.0" encoding="UTF-8"?>
<svg xmlns="http://www.w3.org/2000/svg" xmlns:xlink="http://www.w3.org/1999/xlink" width="640pt" height="512pt" viewBox="0 0 640 512" version="1.1">
<g id="surface181">
<path style=" stroke:none;fill-rule:nonzero;fill:rgb(19.215687%,58.431375%,71.764708%);fill-opacity:1;" d="M 384 320 L 256 320 C 238.328125 320 224 334.328125 224 352 L 224 480 C 224 497.671875 238.328125 512 256 512 L 384 512 C 401.671875 512 416 497.671875 416 480 L 416 352 C 416 334.328125 401.671875 320 384 320 Z M 192 32 C 192 14.328125 177.671875 0 160 0 L 32 0 C 14.328125 0 0 14.328125 0 32 L 0 160 C 0 177.671875 14.328125 192 32 192 L 127.71875 192 L 200.878906 320.039062 C 211.980469 300.980469 232.398438 288 256 288 L 256.28125 288 L 192 175.511719 L 192 128 L 416 128 L 416 64 L 192 64 Z M 608 0 L 480 0 C 462.328125 0 448 14.328125 448 32 L 448 160 C 448 177.671875 462.328125 192 480 192 L 608 192 C 625.671875 192 640 177.671875 640 160 L 640 32 C 640 14.328125 625.671875 0 608 0 Z M 608 0 "/>
</g>
</svg>
